<?xml version="1.0" encoding="utf-8" ?>
<svg xmlns="http://www.w3.org/2000/svg" xmlns:xlink="http://www.w3.org/1999/xlink" width="80" height="80">
	<path transform="scale(0.15625 0.15625)" d="M322.191 365.733C314.455 374.648 310.069 371.039 300.355 368.334L243.618 352.586C223.735 347.236 226.937 350.617 212.842 336.577L157.152 281.305C152.61 276.724 141.893 262.323 135.125 264.538C128.419 266.733 130.849 275.989 130.531 281.257C129.189 303.528 96.6101 306.581 90.5347 285.23C84.5922 264.346 101.142 252.598 100.147 237.9C98.9433 220.121 81.7866 216.934 78.8614 205.834C76.5831 197.189 85.8287 190.838 91.0512 185.531L183.737 92.3681C188.51 87.5585 192.383 82.3345 199.286 80.7965C204.225 80.2696 208.105 81.9231 211.669 85.3032C222.684 95.7514 233.207 106.774 243.96 117.494L330.707 203.84C347.767 220.621 348.837 220.65 354.953 244.166L368.809 299.674C371.952 312.032 375.276 313.341 365.91 322.513C378.963 332.893 391.757 343.644 404.697 354.17L416.506 363.72C425.196 370.732 432.741 377.283 432.064 389.685C431.42 401.479 414.96 416.567 405.717 424.856C397.985 431.79 384.976 433.189 376.421 426.85C372.366 423.846 369.231 419.746 365.919 415.99L326.668 371.098C325.132 369.34 323.612 367.587 322.191 365.733ZM201.458 92.1631C191.672 98.785 172.843 119.837 164.071 128.71L89.9244 203.111C92.0501 205.249 95.2148 209.045 97.6381 210.576C106.719 200.932 116.175 191.655 125.551 182.3L208.675 98.6941C207.234 97.2773 203.241 92.346 201.458 92.1631ZM217.176 107.208C212.482 111.293 208.174 115.952 203.782 120.364L105.371 219.047C112.811 229.888 114.004 245.545 107.32 257.127C103.22 264.231 97.8735 277.309 102.906 284.593C105.756 288.718 111.677 290.052 115.741 286.813C122.834 281.16 114.223 266.353 125.16 257.024C137.531 246.471 148.01 255.621 156.508 264.128L222.571 329.751C226.255 333.467 228.136 336.664 233.448 337.777C236.498 334.108 240.065 330.818 243.441 327.449L316.172 254.768C323.721 247.316 331.256 238.965 339.286 232.103C336.3 223.769 329.198 218.781 323.119 212.728L294.396 184.365C276.455 166.836 259.172 148.611 241.104 131.212C234.014 140.258 238.532 148.17 231.737 157.482C216.805 177.943 201.437 162.075 201.447 203.033L201.453 226.308C201.443 229.907 201.792 234.142 200.918 237.65C195.754 258.38 164.365 256.319 162.34 234.554C162.04 231.332 161.815 223.086 162.282 220.022C163.397 212.701 171.108 213.539 173.829 219.047C174.012 226.167 170.708 241.009 182.106 240.79C191.264 240.613 189.85 229.915 189.858 223.749L189.845 206.263C189.803 185.93 190.21 170.272 210.516 159.073C234.31 145.952 218.17 138.532 233.448 123.356C227.896 118.135 222.433 112.724 217.176 107.208ZM342.636 244.446C335.399 252.635 327.199 260.192 319.465 267.924L268.026 319.278C260.811 326.555 253.196 333.559 246.294 341.132C250.172 341.829 254.036 343.2 257.815 344.325C263.344 345.863 268.865 347.489 274.457 348.788C281.087 341.649 288.455 335.048 295.386 328.183L338.579 284.827C342.286 281.038 346.33 277.566 349.901 273.646C349.553 270.313 343.942 246.215 342.636 244.446ZM353.229 286.748L296.052 343.802C293.073 346.721 289.956 349.566 287.109 352.612C290.692 353.626 294.38 354.457 297.915 355.604L312.307 359.526C323.642 347.277 335.924 335.739 347.697 323.9C351.568 320.008 356.245 316.303 359.653 312.032C358.601 307.954 354.413 288.519 353.229 286.748ZM357.779 330.908C348.649 339.737 339.8 348.864 330.64 357.652L368.937 401.38C375.013 408.227 382.467 422.007 393.301 418.696C398.786 416.457 417.977 396.989 419.556 393.36C424.739 381.449 409.951 373.42 402.413 367.213L370.66 341.38C368.769 339.848 359.372 331.59 357.779 330.908Z"/>
</svg>
