<?xml version="1.0" encoding="utf-8" ?>
<svg xmlns="http://www.w3.org/2000/svg" xmlns:xlink="http://www.w3.org/1999/xlink" width="80" height="80">
	<path transform="scale(0.15625 0.15625)" d="M101.984 302.481C101.524 297.754 101.68 293.004 101.698 288.264L102.765 162.205C102.818 146.212 106.325 136.014 124.191 134.775L386.774 134.743C409.543 134.73 410.239 150.215 410.238 168.184L410.232 302.481C415.866 309.555 432.97 332.881 436.782 341.115C441.001 350.231 438.326 361.772 431.36 368.772C423.225 376.947 414.106 376.739 403.42 376.73L387.375 376.71L106.751 376.726C90.557 376.768 75.4035 374.37 72.7759 354.073C71.078 340.957 79.7171 332.515 86.9656 322.65C91.9289 315.895 96.8369 309.098 101.984 302.481ZM127.686 144.618C107.912 144.582 112.622 160.373 112.51 175.52L111.698 267.123C111.585 277.496 110.782 288.077 111.755 298.421L385.125 298.421L400.483 298.421L400.486 170.246C400.484 159.986 403.47 145.307 388.874 144.675C379.238 144.257 369.442 144.626 359.788 144.626L127.686 144.618ZM122.936 308.336L109.821 308.336C104.298 316.882 85.8621 338.371 83.0552 345.928C80.5768 352.602 83.7703 360.837 89.6922 364.557C96.5537 368.867 122.926 366.954 131.549 366.954L388.625 366.954C401.401 366.977 428.848 371.175 428.879 351.066C428.89 343.726 423.405 338.205 419.446 332.539L402.553 308.336L122.936 308.336Z"/>
	<path transform="scale(0.15625 0.15625)" d="M286.541 167.755C268.834 168.015 244.864 169.004 227.419 167.743C220.249 167.224 220.096 158.864 226.978 158.017L265.281 158.008C269.68 158.008 285.92 156.884 289.227 158.886C293.246 161.317 290.28 166.895 286.541 167.755Z"/>
	<path transform="scale(0.15625 0.15625)" d="M375.987 167.755C371.307 167.806 359.711 169.871 362.317 161.307C362.817 159.666 363.727 158.829 365.193 158.017C371.407 158.142 380.401 156.375 384.338 162.594C386.874 166.6 388.358 178.698 382.734 182.096C374.029 184.159 375.936 172.976 375.987 167.755Z"/>
	<path transform="scale(0.15625 0.15625)" d="M226.978 340.419C229.667 336.73 233.177 335.245 237.66 334.743L260.364 334.73C271.938 334.727 275.673 332.886 284.935 340.419L386.94 340.439C391.147 340.42 408.573 338.399 409.305 344.75C410.173 352.279 399.623 350.052 395.339 350.052L284.935 350.057C283.385 354.451 280.066 356.992 275.897 358.756C267.533 359.735 246.506 359.176 238.088 358.707C232.064 358.372 228.73 355.598 226.178 350.057L123.957 350.055C120.163 350.053 108.158 351.191 105.223 348.647C103.218 346.908 103.034 343.546 104.934 341.657C107.562 339.045 117.018 340.398 120.506 340.414L226.978 340.419ZM240.132 344.327C238.821 344.379 236.793 344.206 235.754 345.118C228.236 351.714 260.029 349.332 271.29 349.327C273.435 349.262 276.015 349.022 276.424 346.422C274.57 342.52 262.477 344.35 258.896 344.35L240.132 344.327Z"/>
</svg>
