<?xml version="1.0" encoding="utf-8" ?>
<svg xmlns="http://www.w3.org/2000/svg" xmlns:xlink="http://www.w3.org/1999/xlink" width="80" height="80">
	<path fill="white" transform="scale(0.078125 0.078125)" d="M0 0L1024 0L1024 1024L0 1024L0 0Z"/>
	<path transform="scale(0.078125 0.078125)" d="M600.184 71.7043C600.417 71.6958 600.649 71.6831 600.883 71.6787C617.12 71.3723 633.787 78.7681 645.349 90.0204C655.2 99.6067 666.229 120.445 674.007 132.727L736.54 232.17L894.022 482.909L954.841 579.237C965.219 595.634 976.523 611.892 986.147 628.716Q986.681 629.64 987.155 630.597Q987.63 631.554 988.042 632.539Q988.454 633.523 988.803 634.533Q989.151 635.542 989.435 636.571Q989.719 637.601 989.936 638.646Q990.154 639.691 990.304 640.748Q990.455 641.805 990.537 642.87Q990.62 643.934 990.635 645.002C990.667 650.283 989.279 655.46 987.164 660.272C975.765 686.213 944.366 681.371 934.904 691.484C926.667 700.285 922.184 717.139 922.57 728.964C922.895 738.913 927.239 748.155 935.838 753.614C940.367 756.49 945.277 758.755 949.207 762.481C954.016 767.04 956.458 772.982 956.599 779.573C956.739 786.111 955.099 792.821 950.323 797.54C947.068 800.758 943.361 802.039 939.137 803.445Q909.194 813.093 879.091 822.231L756.807 860.709C739.334 866.206 721.722 871.273 704.3 876.934Q626.84 902.655 548.994 927.186L506.447 941.247C498.631 943.848 490.803 946.708 482.861 948.889C474.702 951.13 466.264 951.63 457.841 951.536C437.882 950.469 417.299 942.163 402.17 929.079C397.743 925.25 393.673 920.996 390.485 916.067C385.318 908.078 380.935 899.336 376.015 891.145L331.832 817.091L206.572 607.207L98.238 424.78L61.1068 362.21C55.2343 352.241 48.8517 342.424 43.5552 332.142Q42.4473 329.943 41.4509 327.691Q40.4546 325.439 39.5724 323.14Q38.6901 320.84 37.9242 318.5Q37.1583 316.16 36.5107 313.784Q35.863 311.408 35.3352 309.002Q34.8074 306.597 34.4008 304.168Q33.9942 301.74 33.7098 299.293Q33.4254 296.847 33.264 294.39C31.2976 264.281 42.6931 238.299 62.3397 216.055C72.5145 204.535 84.3859 195.474 98.9319 190.249C107.667 187.112 116.952 185.39 125.984 183.297L162.904 174.502L305.181 140.564Q407.007 115.343 509.142 91.4131L566.83 78.0504C577.813 75.603 588.925 72.3903 600.184 71.7043Z"/>
	<path fill="white" transform="scale(0.078125 0.078125)" d="M156.855 195.08C157.292 194.809 156.972 194.958 157.909 194.996C159.113 195.697 159.706 196.744 160.457 197.881C164.098 203.393 167.259 209.345 170.648 215.024L188.239 243.877Q228.151 308.229 267.211 373.099L464.394 697.397C483.369 728.533 503.408 759.084 521.833 790.548C509.512 794.624 496.989 798.194 484.56 801.934L483.801 802.063C482.049 801.384 480.518 798.219 479.57 796.597C457.091 758.129 433.022 720.492 409.941 682.38L200.964 337.545L147.001 248.971C137.755 233.901 127.755 219.13 119.411 203.53C131.798 200.351 144.405 198.016 156.855 195.08Z"/>
	<path fill="white" transform="scale(0.078125 0.078125)" d="M911.519 696.028L912.245 696.196C912.229 698.837 910.082 703.031 909.357 705.772C907.422 713.084 906.282 720.296 906.311 727.872C906.367 742.665 909.704 754.484 920.347 764.981L629.262 857.024L530.674 888.619C514.062 894.001 496.304 901.047 479.385 904.947C473.276 906.355 467.381 905.456 461.467 903.691C461.041 903.521 460.62 903.341 460.205 903.148C453.083 899.834 448.099 893.902 445.589 886.511C441.272 873.797 445.168 858.47 451.06 846.904C454.45 840.25 460.47 831.172 467.385 827.888C477.679 823 498.579 818.25 510.313 814.878L587.229 792.154L784.682 733.592Q823.643 722.355 862.467 710.655C878.849 705.843 895.266 701.276 911.519 696.028Z"/>
	<path fill="white" transform="scale(0.078125 0.078125)" d="M100.951 209.431C103.747 211.78 106.271 217.734 108.288 220.931C120.119 239.684 131.592 258.524 143.051 277.509L209.119 385.881L465.599 808.468C454.485 812.259 446.102 822.493 439.701 831.941C428.924 847.847 422.983 867.739 426.739 886.869Q426.949 887.965 427.212 889.049Q427.476 890.134 427.793 891.203Q428.11 892.273 428.479 893.326Q428.849 894.379 429.27 895.412Q429.692 896.446 430.164 897.457Q430.636 898.468 431.157 899.454Q431.679 900.441 432.248 901.4Q432.818 902.36 433.435 903.29Q434.051 904.22 434.713 905.118Q435.375 906.016 436.081 906.881Q436.786 907.745 437.534 908.574Q438.282 909.402 439.069 910.192Q439.857 910.983 440.683 911.733Q441.509 912.483 442.371 913.192Q443.233 913.9 444.129 914.565Q445.025 915.23 445.953 915.85C455.904 922.476 468.634 924.771 480.419 923.272C488.907 922.193 506.131 915.671 515.075 912.794L580.028 891.999L824.187 813.846Q862.827 801.385 901.643 789.486L922.699 782.828C926.589 781.569 930.78 779.801 934.814 779.116C936.446 778.839 937.763 778.845 939.158 779.813C939.499 780.98 939.594 781.17 938.974 782.308C937.074 785.792 933.169 786.502 929.689 787.521L623.507 884.131L519.54 917.448C505.86 921.809 491.9 927.842 478.002 931.03Q476.007 931.504 473.988 931.858Q471.969 932.213 469.932 932.447Q467.895 932.682 465.848 932.795Q463.801 932.908 461.751 932.9Q459.7 932.891 457.654 932.762Q455.608 932.632 453.573 932.381Q451.539 932.131 449.522 931.76Q447.506 931.389 445.515 930.899C432.996 927.697 417.242 920.641 408.767 910.519C404.466 905.382 401.255 898.74 397.89 892.958L379.948 862.224L319.382 760.515L87.4085 371.339L69.7299 341.195C55.3662 316.566 45.6936 297.719 53.3387 268.315C59.8625 243.224 78.9415 222.221 100.951 209.431Z"/>
	<path transform="scale(0.078125 0.078125)" d="M84.6078 300.416C85.5967 300.406 87.6759 300.198 88.5134 300.691C90.6152 301.928 119.676 352.135 124.122 359.447C136.837 380.36 150.909 400.355 163.863 421.114C180.775 448.219 196.486 475.979 212.836 503.414C220.525 516.317 228.874 528.824 236.561 541.72C259.274 579.824 280.048 619.029 302.675 657.165L349.024 733.984C355.798 745.222 386.973 794.849 388.518 804.032C388.761 805.476 388.322 806.355 387.519 807.538C386.846 807.308 386.549 807.231 385.952 806.957C380.859 804.625 352.71 757.684 346.905 748.257C329.798 720.477 312.368 692.732 295.956 664.544C278.841 635.15 262.7 605.174 245.509 575.843C218.583 529.902 190.612 484.546 163.33 438.809C142.772 404.345 120.617 371.584 100.81 336.527C95.8649 327.775 87.7134 314.98 84.3381 305.847C83.5312 303.664 83.6319 302.513 84.6078 300.416Z"/>
	<path fill="white" transform="scale(0.078125 0.078125)" d="M596.32 89.665C604.937 88.602 614.098 90.6792 621.824 94.4933C629.179 98.1245 634.664 103.274 639.241 110.027C645.394 119.104 650.807 128.804 656.683 138.079L715.308 231.762Q811.952 383.618 906.889 536.547Q929.043 571.995 951.633 607.166C956.79 615.249 968.836 631.269 971.568 639.698C973.149 644.574 972.829 648.954 970.326 653.446Q969.869 654.284 969.341 655.079Q968.813 655.874 968.218 656.62Q967.622 657.366 966.964 658.057Q966.305 658.748 965.589 659.378Q964.872 660.009 964.104 660.575Q963.335 661.14 962.52 661.637Q961.704 662.133 960.849 662.556Q959.993 662.979 959.104 663.326C946.241 668.425 931.759 671.318 918.439 675.215L818.538 703.999L641.068 756.196Q596.534 769.771 551.745 782.481L539.432 785.928L309.371 407.454L222.796 265.615Q207.304 240.886 192.089 215.987C186.846 207.423 181.312 198.886 176.597 190.019C218.077 180.793 259.297 169.996 300.602 160.005L448.554 124.544Q497.27 112.413 546.242 101.364L576.993 93.9358C583.387 92.3859 589.806 90.6118 596.32 89.665Z"/>
	<path transform="scale(0.078125 0.078125)" d="M630.232 142.549C630.769 142.489 630.886 142.443 631.494 142.566C632.814 142.832 634.25 143.659 635.073 144.703C635.473 146.143 635.549 146.895 634.876 148.276C634.743 148.549 634.389 149.051 634.208 149.285C632.995 150.859 631.148 152.162 629.284 152.846C626.289 153.946 622.96 154.479 619.86 155.284L598.131 160.968L537.011 177.216L410.993 210.01C390.821 215.255 370.736 220.771 350.507 225.823C349.486 225.758 348.339 225.733 347.395 225.303C346.23 224.772 345.271 223.622 344.825 222.437C344.4 221.31 344.392 220.075 345.001 219.01C345.67 217.841 346.833 217.317 348.025 216.848C353.693 214.618 360.204 213.44 366.13 211.925L399.947 203.257Q515.307 173.726 630.232 142.549Z"/>
	<path transform="scale(0.078125 0.078125)" d="M679.309 225.677C679.929 225.801 680.634 225.91 681.233 226.134C682.564 226.632 683.613 227.427 684.198 228.745C684.658 229.781 684.86 230.94 684.317 231.99C683.729 233.127 682.485 233.923 681.37 234.457C674.398 237.792 665.665 239.261 658.162 241.317L601.281 256.399Q530.436 275.668 459.366 294.089C438.944 299.425 418.647 305.543 398.058 310.217C397.829 310.15 397.596 310.096 397.371 310.015C395.658 309.399 393.895 308.014 393.197 306.281C392.727 305.115 392.819 304.016 393.481 302.934C393.95 302.17 394.712 301.693 395.51 301.34C401.912 298.511 410.006 297.34 416.849 295.469L480.169 278.761Q556.127 258.247 632.307 238.576C648.005 234.505 663.545 229.363 679.309 225.677Z"/>
	<path transform="scale(0.078125 0.078125)" d="M727.165 310.092C728.192 310.015 729.379 309.866 730.347 310.293C731.839 310.951 733.524 312.764 733.914 314.366C734.149 315.33 733.913 315.969 733.461 316.817C732.868 317.93 731.79 318.378 730.67 318.842C722.738 322.125 713.424 323.996 705.123 326.305Q678.45 333.76 651.663 340.797L450.756 394.972C449.938 395.058 448.805 395.211 447.997 394.972C446.518 394.535 444.915 393.086 444.365 391.616C443.95 390.506 444.107 389.224 444.649 388.193C445.226 387.094 447.471 386.315 448.577 385.891C460.214 381.433 473.22 378.8 485.289 375.617L553.662 357.58L670.91 325.561C689.651 320.391 708.346 314.963 727.165 310.092Z"/>
	<path transform="scale(0.078125 0.078125)" d="M834.671 473.101C834.895 473.13 835.122 473.147 835.344 473.189C836.978 473.493 838.632 474.339 839.462 475.851C840.058 476.937 840.009 478.064 839.521 479.166C837.585 483.537 817.861 487.854 812.915 489.307L550.135 564.208C549.282 564.161 548.585 564.084 547.775 563.805C546.394 563.329 545.028 562.332 544.579 560.884C544.141 559.469 544.55 558.068 545.389 556.899C546.386 555.508 547.831 554.551 549.436 553.992C553.85 552.458 558.732 551.602 563.264 550.42Q578.232 546.49 593.145 542.354L720.155 506.737C743.996 499.994 767.873 493.074 791.567 485.83C804.774 481.792 821.449 475.524 834.671 473.101Z"/>
	<path transform="scale(0.078125 0.078125)" d="M781.7 391.536C782.35 391.566 783.05 391.568 783.685 391.741C784.961 392.086 786.094 393.081 786.684 394.241C787.289 395.429 787.23 396.596 786.631 397.76C785.592 399.777 782.001 401.175 780.018 401.875C767.532 406.285 754.218 409.155 741.432 412.6C734.931 414.352 728.512 416.548 722.037 418.426C713.56 420.885 704.999 423.039 696.505 425.433L501.075 478.901C500.199 478.937 500.209 479.023 499.42 478.755C497.805 478.206 496.38 476.978 495.77 475.363C495.309 474.145 495.37 472.776 496.006 471.629C496.546 470.653 497.507 469.92 498.532 469.515C507.333 466.034 519.743 463.577 529.162 461.106L585.365 446.118L684.818 418.665C717.101 409.825 749.71 401.361 781.7 391.536Z"/>
</svg>
