<?xml version="1.0" encoding="utf-8" ?>
<svg xmlns="http://www.w3.org/2000/svg" xmlns:xlink="http://www.w3.org/1999/xlink" width="80" height="80">
	<path transform="scale(0.15625 0.15625)" d="M271.971 212.747L271.958 113.481C271.909 100.863 270.229 89.5915 287.2 88.8394L387.672 88.8282C401.167 88.824 410.627 87.965 410.953 104.534C411.147 114.392 410.963 124.288 410.963 134.151L410.98 222.956C411.016 249.985 409.365 249.779 385.159 249.782L355.765 249.77L355.783 332.313C355.852 348.048 353.728 362.015 334.942 366.665C328.953 368.148 321.176 367.438 314.952 367.437L284.788 367.421C290.181 377.06 298.861 388.159 305.063 397.689C310.067 397.925 315.186 397.703 320.202 397.701L350.566 397.689C356.327 378.711 383.029 378.131 388.678 396.668C396.363 421.889 357.828 433.317 350.566 407.698L317.079 407.707C313.449 407.714 303.989 408.242 300.961 407.438C297.875 406.619 276.133 372.236 273.063 367.421L260.873 367.421L260.882 391.931C260.899 396.751 263.319 408.405 255.517 408.294C249.12 408.202 251.043 394.105 251.061 390.287L251.063 367.421C247.035 367.208 242.921 367.393 238.887 367.421C234.7 372.585 231.301 378.571 227.686 384.158C224.197 389.212 216.272 403.005 212.434 406.656C210.008 408.963 196.491 407.715 193.079 407.712L161.161 407.698C154.908 427.355 130.428 426.873 123.627 409.897C114.33 386.692 150.788 370.577 161.161 397.689L206.737 397.689C213.195 387.583 220.353 377.752 226.421 367.421L199.651 367.426C192.356 367.433 183.178 368.305 176.193 366.367C157.6 361.206 155.543 345.85 155.538 330.058L155.544 249.77L143.623 249.786C132.582 249.776 117.818 247.273 116.807 233.416C112.52 233.392 108.22 233.608 103.937 233.416C99.5041 230.143 100.566 207.006 101.202 201.513C102.075 193.963 112.73 196.637 118.824 196.641C139.947 196.657 139.783 192.534 139.74 214.733C139.706 232.094 143.17 233.188 126.853 233.416C132.156 243.328 145.244 239.833 155.544 239.809C156.545 217.899 172.71 212.687 190.735 212.722L271.971 212.747ZM285.697 98.8249C279.536 99.7651 281.817 110.022 281.828 115.464L281.841 212.747L312.425 212.75C319.513 212.75 328.497 211.95 335.3 213.711C347.078 216.761 355.589 227.667 355.765 239.809L397.489 239.809C404.157 239.125 401.197 211.087 401.193 205.091L401.19 118.461C401.189 112.954 401.65 106.94 400.862 101.485C400.203 96.9155 385.501 98.8212 381.375 98.8206L352.933 98.8206C330.543 98.8214 308.078 98.4322 285.697 98.8249ZM111.099 206.768L111.099 223.68L130.084 223.68L130.084 206.768L111.099 206.768ZM181.878 222.475C165.583 224.48 165.437 237.881 165.434 250.124L165.44 328.316L329.875 328.316L346.031 328.316L346.034 250.897C346.019 224.739 340.958 222.457 313.753 222.465L181.878 222.475ZM342.159 338.236L165.44 338.236C165.683 344.793 168.149 350.069 173.412 353.972C179.874 358.199 186.738 357.477 194.13 357.478L312.085 357.474C329.094 357.471 344.729 359.727 346.031 338.236C344.744 338.225 343.443 338.17 342.159 338.236ZM368.455 393.29C355.76 396.018 358.279 413.66 371.086 412.477C384.582 408.855 379.488 390.768 368.455 393.29ZM140.749 393.29C127.942 396.056 130.677 413.089 143.31 412.477C156.25 409.812 153.619 392.713 140.749 393.29Z"/>
	<path transform="scale(0.15625 0.15625)" d="M377.737 146.648C356.95 148.419 350.898 117.821 374.566 113.8C393.432 111.086 400.328 141.641 377.737 146.648ZM375.472 123.791C367.097 125.604 367.543 136.662 375.96 136.512C384.189 134.826 383.843 123.858 375.472 123.791Z"/>
	<path transform="scale(0.15625 0.15625)" d="M325.459 160.011C326.983 153.664 331.737 149.781 338.036 148.306C351.158 147.474 361.003 157.99 356.085 170.477C350.354 185.029 330.982 183.425 325.459 169.906L308.584 169.933C305.346 169.935 301.71 170.252 298.535 169.606C293.975 168.68 293.403 161.231 298.134 160.303C301.469 159.649 305.227 159.986 308.622 159.993L325.459 160.011ZM339.596 158.303C331.95 160.731 334.027 172.199 342.159 169.906C350.147 168.833 347.731 157.765 339.596 158.303Z"/>
	<path transform="scale(0.15625 0.15625)" d="M119.994 189.743C114.69 186.034 116.781 176.593 116.784 170.311C116.787 165.018 114.757 155.935 119.994 152.727C130.56 152.599 141.138 152.731 151.705 152.727C153.576 153.946 154.479 155.003 154.662 157.239C155.166 163.399 157.44 186.649 151.705 189.743C144.796 190.406 126.974 190.276 119.994 189.743ZM126.853 162.732L126.853 179.606L144.844 179.606L144.844 162.732L126.853 162.732Z"/>
	<path transform="scale(0.15625 0.15625)" d="M377.737 220.67C356.803 221.947 352.497 190.952 375.472 187.831C393.286 185.411 401.498 217.189 377.737 220.67ZM374.566 198.296C367.286 201.905 369.954 211.885 377.737 210.342C385.752 207.19 383.651 197.539 374.566 198.296Z"/>
</svg>
