<?xml version="1.0" encoding="utf-8" ?>
<svg xmlns="http://www.w3.org/2000/svg" xmlns:xlink="http://www.w3.org/1999/xlink" width="80" height="80">
	<path transform="scale(0.15625 0.15625)" d="M334.439 444.371C329.505 445.434 324.611 445.259 319.589 445.256L186.946 445.257C169.235 445.284 153.567 438.785 151.477 418.374C150.85 412.254 151.208 405.87 151.209 399.71L151.226 107.036C151.238 102.496 150.691 97.825 151.05 93.3145C152.261 78.0878 163.383 67.5188 178.485 66.0627L316.017 66.0542C334.299 66.0565 352.593 66.226 358.043 89.1785C360.939 101.377 358.438 134.156 358.902 148.383C364.526 151.871 361.919 172.462 361.912 179.667C361.906 185.442 363.754 192.937 359.418 197.445L359.447 407.075C359.467 425.001 353.964 439.23 334.439 444.371ZM178.485 75.305C157.184 77.6443 160.352 98.8317 160.358 113.847L160.349 399.935C160.334 414.184 158.706 433.845 178.552 436.066C184.446 436.726 193.461 436.238 199.617 436.232L321.632 436.239C325.024 436.247 328.492 436.405 331.877 436.227C352.5 427.37 350.087 417.576 350.078 398.215L350.072 121.286C350.073 113.056 351.35 95.533 348.104 88.1702C341.342 72.8334 326.131 75.307 312.552 75.3095L178.485 75.305Z"/>
	<path transform="scale(0.15625 0.15625)" d="M277.834 96.3906C272.423 96.4593 234.492 96.8315 232.337 96.1101C227.802 94.5914 229.427 88.9632 233.228 87.2712C237.869 87.0807 276.444 86.9318 278.545 87.5714C283.193 88.9866 281.901 94.7327 277.834 96.3906Z"/>
	<path transform="scale(0.15625 0.15625)" d="M335.394 402.878C328.5 407.04 318.624 405.226 310.973 405.21L192.534 405.225C170.218 405.32 169.523 402.767 169.556 383.177L169.58 130.146C169.579 117.223 165.741 100.38 183.67 98.2545C190.704 98.2285 198.988 97.3227 205.625 99.8816C218.103 104.692 212.512 107.418 228.769 107.432L286.511 107.425C295.989 107.355 299.863 100.12 308.739 98.5457C312.721 97.8396 324.194 97.8721 328.146 98.5365C346.078 101.552 342.25 125.106 342.242 138.657L342.252 382.6C342.255 390.664 342.899 397.664 335.394 402.878ZM310.919 107.429C305.45 108.479 300.038 114.683 293.377 116.204C288.878 117.232 283.511 116.746 278.894 116.747L233.67 116.743C228.721 116.74 223.639 116.952 218.713 116.441C206.504 115.173 205.58 103.782 183.481 107.6C175.123 109.044 178.484 130.776 178.495 138.072L178.483 372.303C178.484 376.782 177.948 391.032 178.849 394.396C179.76 397.796 189.31 396.157 191.926 396.178L314.267 396.184C332.193 396.185 332.962 399.693 332.951 381.202L332.939 130.799C332.96 105.506 334.919 107.454 310.919 107.429Z"/>
	<path transform="scale(0.15625 0.15625)" d="M212.251 263.39C208.552 263.638 204.07 261.514 201.088 259.466C183.98 247.716 188.973 219.19 209.69 215.803C213.017 214.962 215.972 217.978 215.006 221.374C214.115 224.504 209.564 224.874 207.049 226.233C197.699 231.282 197.223 245.759 205.881 251.754C207.599 252.944 223.322 258.065 212.251 263.39Z"/>
	<path transform="scale(0.15625 0.15625)" d="M303.215 263.39C300.005 263.939 296.258 261.701 297.068 257.999C297.829 254.521 302.577 253.828 305.177 252.075C313.86 246.218 313.531 231.974 304.502 226.541C302.049 225.066 290.697 221.596 299.543 215.803C318.761 213.203 333.34 252.992 303.215 263.39Z"/>
	<path transform="scale(0.15625 0.15625)" d="M229.624 255.451C226.709 255.983 223.08 253.936 223.94 250.537C224.599 247.929 252.566 220.041 256.344 217.771C259.333 217.549 262.981 219.427 262.104 222.979C261.293 226.26 233.268 253.271 229.624 255.451Z"/>
	<path transform="scale(0.15625 0.15625)" d="M267.435 250.694C264.396 251.008 260.79 249.149 261.623 245.515C262.209 242.96 273.238 232.83 275.798 231.281C291.69 230.001 271.546 248.271 267.435 250.694Z"/>
	<path transform="scale(0.15625 0.15625)" d="M262.197 381.004C258.882 381.313 249.883 381.528 247.291 379.776C243.599 377.281 245.04 371.805 250.318 371.11C253.625 370.941 260.072 370.496 263.025 371.488C268.564 373.349 266.646 379.344 262.197 381.004Z"/>
	<path transform="scale(0.15625 0.15625)" d="M294.265 381.004C290.712 380.981 283.798 382.045 280.956 379.733C276.941 376.466 279.428 371.502 285.297 371.11C288.818 371.054 295.063 370.323 297.998 372.409C302.073 375.305 299.173 380.374 294.265 381.004Z"/>
	<path transform="scale(0.15625 0.15625)" d="M229.624 381.004C224.951 380.925 210.54 383.317 212.18 374.853C212.527 373.057 213.784 372.061 215.24 371.11C218.965 371.078 222.775 370.912 226.493 371.164C232.34 371.56 234.505 377.042 229.624 381.004Z"/>
</svg>
